HIERARCHY
ROOT Hips
{
  OFFSET 33.3793 31.2306 -136.493
  CHANNELS 6 Xposition Yposition Zposition Zrotation Xrotation Yrotation
  JOINT RightUpLeg
  {
    OFFSET -8.9458 -8.66707 0.101652
    CHANNELS 3 Zrotation Xrotation Yrotation
    JOINT RightLeg
    {
      OFFSET 0 -44.4227 1.3727
      CHANNELS 3 Zrotation Xrotation Yrotation
      JOINT RightFoot
      {
        OFFSET 0.253549 -42.0924 -1.46059
        CHANNELS 3 Zrotation Xrotation Yrotation
        JOINT RightToes
        {
          OFFSET 0.04 -4.41509 8.4991
          CHANNELS 3 Zrotation Xrotation Yrotation
          End Site
          {
            OFFSET -0.08 -0.137448 9.77979
          }
        }
      }
    }
  }
  JOINT Spine
  {
    OFFSET 0 11.8905 0
    CHANNELS 3 Zrotation Xrotation Yrotation
    JOINT Spine1
    {
      OFFSET 0 25.6574 0.127663
      CHANNELS 3 Zrotation Xrotation Yrotation
      JOINT HEad
      {
        OFFSET 0 8.73416 0.011341
        CHANNELS 3 Zrotation Xrotation Yrotation
        End Site
        {
          OFFSET -0.29 12.7742 2.51395
        }
      }
      JOINT LeftShoulder1
      {
        OFFSET 8.99 -0.362252 -0.22
        CHANNELS 3 Zrotation Xrotation Yrotation
        JOINT LeftArm
        {
          OFFSET 10.2827 -0.00338 0.322123
          CHANNELS 3 Zrotation Xrotation Yrotation
          JOINT LeftForeArm
          {
            OFFSET 32.7669 0.099144 -1.42434
            CHANNELS 3 Zrotation Xrotation Yrotation
            JOINT LeftHand
            {
              OFFSET 27.5643 0.085362 1.02216
              CHANNELS 3 Zrotation Xrotation Yrotation
              End Site
              {
                OFFSET 16.7443 -0.6 1.50291
              }
            }
          }
        }
      }
      JOINT RightShoulder
      {
        OFFSET -8.99 -0.362252 -0.22
        CHANNELS 3 Zrotation Xrotation Yrotation
        JOINT RightArm
        {
          OFFSET -10.2827 -0.00338 0.322123
          CHANNELS 3 Zrotation Xrotation Yrotation
          JOINT RightForeArm
          {
            OFFSET -32.8971 0.099144 -1.42434
            CHANNELS 3 Zrotation Xrotation Yrotation
            JOINT RightHand
            {
              OFFSET -27.4921 0.085362 1.02216
              CHANNELS 3 Zrotation Xrotation Yrotation
              End Site
              {
                OFFSET -16.6312 -0.6 1.50291
              }
            }
          }
        }
      }
    }
  }
  JOINT LeftUpLeg
  {
    OFFSET 8.9458 -8.66707 0.101652
    CHANNELS 3 Zrotation Xrotation Yrotation
    JOINT LeftLeg
    {
      OFFSET 0 -44.4227 1.3727
      CHANNELS 3 Zrotation Xrotation Yrotation
      JOINT LeftFoot
      {
        OFFSET -0.253549 -42.0924 -1.46059
        CHANNELS 3 Zrotation Xrotation Yrotation
        JOINT LeftToes
        {
          OFFSET -0.04 -4.41509 8.4991
          CHANNELS 3 Zrotation Xrotation Yrotation
          End Site
          {
            OFFSET 0.08 -0.047448 9.77979
          }
        }
      }
    }
  }
}
MOTION
Frames:	8
Frame Time:	0.0166667
43.7839 76.9867 -120.956 2.69512 -12.6438 -24.6431 -27.2458 -40.5635 -14.1156 -60.9777 68.5043 77.5105 27.9909 3.09858 -0.265647 0.0462048 0.000533403 0.662642 -24.6412 53.4857 14.624 -0.0446503 0.06369 -0.0165889 -20.8681 -5.69104 20.3413 -1.76556e-031 -6.36111e-015 -1.59028e-015 -156.041 -61.8709 -107.719 -100.022 64.8844 -26.6311 4.23159 1.74059 -3.75336 -3.97845 27.5878 6.51481 112.721 -11.7612 105.866 85.4408 65.0866 44.198 -9.1507 19.5296 -20.5249 16.0166 -40.5233 15.6011 49.4363 56.4352 -31.9744 -19.1588 -0.992982 -0.930521 -1.00516e-008 1.56021e-007 -4.87131e-009 
43.7611 74.0284 -122.046 2.44921 -13.0548 -24.8167 -27.6098 -44.1613 -13.7499 -72.4346 70.4007 88.8729 31.968 3.45545 -0.456634 0.0462048 0.000533403 0.662642 -31.5345 57.571 20.0708 -0.0215367 0.168382 -0.0136614 -18.9657 -9.0891 19.3283 4.77083e-015 -9.54166e-015 -3.18055e-015 -155.192 -60.7353 -111.837 -106.265 59.5411 -25.414 12.0753 21.0199 -6.27512 -1.1547 22.6139 5.35386 108.295 -20.5404 100.861 78.7929 62.7051 51.5348 -8.81051 16.1936 -0.979246 16.1308 -42.1585 15.4747 52.3989 57.1484 -34.0038 -16.0408 -0.787422 -0.795178 -1.00516e-008 1.56021e-007 -4.87131e-009 
43.3727 71.0229 -123.577 2.22891 -12.2151 -24.1506 -28.1516 -49.2274 -13.8786 -88.22 72.4067 104.061 35.9179 3.70087 -0.780936 0.0462048 0.000533403 0.662642 -37.4991 60.458 24.6726 0.046128 0.459167 -0.0121698 -16.6747 -12.5041 18.281 3.18055e-015 -6.36111e-015 -1.59028e-015 -154.778 -57.4434 -117.639 -109.504 56.3691 -25.088 7.7873 15.7015 -3.33218 1.79706 17.9958 4.73287 105.392 -24.9473 99.2991 75.7867 60.9143 55.2424 -7.03375 21.3698 -2.20869 16.691 -45.143 14.6579 55.2591 57.2921 -36.3677 -13.5159 -0.198519 -0.723173 -1.00516e-008 1.56021e-007 -4.87131e-009 
42.6966 67.5011 -125.472 2.41053 -9.9485 -21.8103 -31.0354 -55.3483 -16.3572 -108.617 73.5766 123.487 40.0043 3.89221 -1.26924 0.0462048 0.000533403 0.662642 -40.6107 62.5483 26.1133 0.145665 0.903614 -0.0163617 -13.946 -15.8267 17.2174 -1.59028e-015 0 -1.59028e-015 -153.439 -52.4935 -123.863 -110.911 54.3042 -25.0135 12.0743 25.9827 -5.33487 4.8401 13.8401 4.69576 104.333 -26.4392 100.775 74.6406 59.7758 56.7605 -6.44493 19.0103 6.0239 16.6516 -50.1627 12.2983 57.9645 56.9827 -39.0685 -11.4773 0.733759 -0.748284 -1.00516e-008 1.56021e-007 -4.87131e-009 
41.6883 63.9413 -127.556 2.6178 -7.79006 -19.7072 -34.1752 -61.6282 -17.8009 -130.736 73.2278 144.315 44.393 4.03838 -1.95759 0.0462048 0.000533403 0.662642 -45.1039 63.993 29.0732 0.280837 1.47709 -0.0256016 -10.8326 -19.0156 16.0962 -1.59028e-015 -3.18055e-015 -2.78299e-015 -150.425 -46.164 -129.709 -111.152 52.8433 -25.012 9.48789 22.5062 -3.78405 8.4776 10.0958 4.72036 104.337 -25.5774 104.631 74.3341 58.8211 57.1032 -5.83187 22.7579 3.57938 17.1295 -55.3842 10.4962 60.8572 56.1527 -42.4991 -10.2871 1.99744 -0.923128 -1.00516e-008 1.56021e-007 -4.87131e-009 
40.4153 60.3311 -129.7 2.85047 -5.756 -17.806 -37.0052 -67.7893 -17.6325 -150.518 71.4288 162.537 49.3097 4.1161 -2.85573 0.0462048 0.000533403 0.662642 -47.8024 64.5398 30.5065 0.524481 2.08339 -0.0404199 -8.39114 -21.1129 15.2314 1.10348e-031 -3.18055e-015 1.98785e-015 -146.453 -39.7579 -134.634 -110.414 51.5608 -25.2228 11.7078 28.5643 -4.7111 11.1328 7.62698 4.99845 105.334 -22.9322 110.113 74.5075 57.845 56.6815 -5.59866 21.7276 6.79353 18.3807 -60.7054 9.62042 63.258 55.1372 -46.1151 -9.50751 3.49422 -1.2583 -1.00516e-008 1.56021e-007 -4.87131e-009 
38.9789 56.3947 -131.718 3.10758 -3.85888 -16.0223 -38.5254 -73.7476 -14.7628 -166.336 68.4696 176.626 55.0882 4.10551 -3.92164 0.0462048 0.000533403 0.662642 -48.7745 64.4369 30.4463 0.707182 2.84179 -0.0623158 -6.46962 -22.4012 14.3828 1.59028e-015 6.36111e-015 2.38542e-015 -141.537 -33.2423 -138.608 -108.845 50.3346 -25.5992 10.4155 26.5972 -3.8313 13.0213 6.0994 5.50533 103.801 -15.7229 115.394 76.9871 56.7649 53.9254 -7.81342 27.6055 2.78485 23.8396 -66.7152 12.9486 64.4885 56.3116 -51.169 -7.27088 5.19166 -1.73677 -1.00516e-008 1.56021e-007 -4.87131e-009 
37.4198 52.4789 -133.58 3.37426 -2.11502 -14.3303 -38.7727 -79.432 -10.5302 -175.669 64.6076 -175.722 61.6416 4.16045 -5.17318 0.0462048 0.000533403 0.662642 -48.3223 63.8384 29.1496 0.900186 3.64579 -0.0911227 -5.08952 -22.9482 13.5099 1.59028e-015 6.36111e-015 3.97569e-015 -135.984 -26.8756 -141.835 -106.631 49.0456 -26.27 11.1515 30.6815 -4.11231 14.5003 5.33361 5.85645 100.652 -5.38507 120.707 71.9275 53.4002 56.2668 -9.3531 29.4558 3.03159 37.3375 -72.5415 24.4633 65.0281 59.0955 -57.415 -3.97246 7.02296 -2.40381 -1.00516e-008 1.56021e-007 -4.87131e-009 
